<svg width="110" height="28" viewBox="0 0 110 28" fill="none" xmlns="http://www.w3.org/2000/svg">
<path d="M40.085 0.566406C32.5897 0.566406 26.5163 6.64154 26.5163 14.1345C26.5163 21.6275 32.5914 27.7032 40.085 27.7032C47.5785 27.7032 53.6537 21.6275 53.6537 14.1345C53.6537 6.64154 47.5779 0.566406 40.085 0.566406ZM40.085 20.5848C36.527 20.5848 33.6329 17.6907 33.6329 14.1345C33.6329 10.5783 36.527 7.68475 40.085 7.68475C43.643 7.68475 46.5353 10.5788 46.5353 14.1345C46.5353 17.6902 43.6412 20.5848 40.085 20.5848Z" fill="black"/>
<path d="M75.2786 17.5741C74.1508 19.3823 72.1803 20.5854 69.818 20.5854C67.0355 20.5854 64.6581 18.8152 63.7557 16.3419C63.5038 15.654 63.3653 14.9112 63.3653 14.1357C63.3653 13.3601 63.5038 12.6173 63.7557 11.9294C64.6581 9.45556 67.1162 7.68533 69.818 7.68533C72.1056 7.68533 74.1192 8.88188 75.2646 10.6819L81.4344 7.11205C79.0728 3.18815 74.81 0.566406 69.818 0.566406C63.955 0.566406 58.9617 4.28629 57.0646 9.4918C56.5363 10.94 56.2493 12.5045 56.2493 14.1345C56.2493 15.7645 56.5369 17.329 57.0646 18.7772C58.9617 23.985 64.0362 27.7032 69.818 27.7032C74.75 27.7032 79.0666 25.0704 81.4424 21.1354L75.2786 17.5741Z" fill="black"/>
<path d="M24.4966 8.06628L10.7321 19.8203C10.5702 19.9582 10.6678 20.223 10.8805 20.223H24.2692C24.3955 20.223 24.4983 20.3253 24.4983 20.4521V26.7031C24.4983 26.8294 24.396 26.9322 24.2692 26.9322H0.36142C0.235184 26.9322 0.132324 26.8299 0.132324 26.7031V20.2288C0.132324 20.2288 0.132909 20.2247 0.134662 20.2236L13.8985 8.46895C14.0604 8.33102 13.9628 8.06628 13.7501 8.06628H0.36142C0.235184 8.06628 0.132324 7.964 0.132324 7.83718V1.58847C0.132324 1.46223 0.234599 1.35938 0.36142 1.35938H24.2698C24.396 1.35938 24.4989 1.46165 24.4989 1.58847V8.06102C24.4989 8.06102 24.4983 8.06511 24.4966 8.06628Z" fill="black"/>
<path d="M95.7545 0.736328C88.2668 0.736328 82.197 6.8062 82.197 14.2939C82.197 21.7816 88.2668 27.8515 95.7545 27.8515H109.206C109.265 27.8515 109.313 27.8036 109.313 27.7445V14.2939C109.313 6.8062 103.243 0.736328 95.7545 0.736328ZM106.244 25.041L99.942 20.1738C98.7521 21.0417 97.2863 21.5543 95.7008 21.5543C91.7208 21.5543 88.4948 18.3282 88.4948 14.3483C88.4948 10.3683 91.7208 7.14225 95.7008 7.14225C99.6807 7.14225 102.907 10.3683 102.907 14.3483C102.907 15.9332 102.395 17.399 101.527 18.5883L106.395 24.8913C106.471 24.9901 106.344 25.1175 106.244 25.041Z" fill="black"/>
<path d="M90.856 11.3669C91.6872 9.99575 93.1213 9.06317 94.1098 9.66238C95.0983 10.2616 94.1793 11.5858 93.3482 12.9569C92.517 14.328 91.7173 15.4978 90.7288 14.8986C89.7403 14.2994 90.0249 12.738 90.856 11.3669Z" fill="black"/>
</svg>
